<svg width="25" height="25" viewBox="0 0 25 25" fill="none" xmlns="http://www.w3.org/2000/svg">
<g clip-path="url(#clip0_37_140)">
<path d="M-7.34257e-05 20.3006V16.4002C0.0769942 16.4961 0.00368597 16.6465 0.122107 16.7461C0.129626 16.6991 0.137145 16.6672 0.139024 16.6371C0.193536 15.7969 0.315716 14.9698 0.511205 14.1465C0.949175 12.295 1.64466 10.5506 2.62399 8.92468C3.68414 7.16528 4.97737 5.59949 6.58263 4.29498C8.53564 2.70664 10.7029 1.54122 13.1108 0.815659C14.4999 0.396486 15.9229 0.170922 17.3721 0.150245C18.5507 0.135208 19.7293 0.163403 20.9078 0.268666C22.1935 0.385208 23.2123 0.928441 24.0112 1.92656C24.5751 2.63145 24.8101 3.44724 24.8608 4.3307C24.8721 4.51491 24.827 4.70476 24.9097 4.89085C24.9435 4.85513 24.9717 4.82318 24.9999 4.7931V8.83446C24.983 8.80814 24.9699 8.76303 24.9492 8.76115C24.8871 8.75175 24.9078 8.8119 24.9041 8.8401C24.8853 9.09761 24.8965 9.36077 24.8496 9.61265C24.5939 11.0393 24.2368 12.4397 23.6823 13.7837C22.7932 15.9397 21.5544 17.8702 19.9323 19.5469C18.3195 21.2123 16.4605 22.5318 14.3439 23.4811C12.8157 24.1672 11.2386 24.6954 9.56008 24.8645C9.51684 24.8683 9.45105 24.857 9.4473 24.9134C9.44542 24.9397 9.50557 24.9717 9.53752 24.9999H3.99241C4.00181 24.9378 4.11647 24.9698 4.10331 24.8721C3.78 24.8533 3.46985 24.7893 3.15782 24.7311C2.82699 24.6672 2.5394 24.5224 2.26496 24.3439C1.32511 23.7311 0.631506 22.9247 0.35143 21.8157C0.244287 21.3946 0.195415 20.9604 0.189776 20.5224C0.187897 20.3401 0.216092 20.1521 0.118348 19.9736C0.00744537 20.0657 0.0769942 20.2104 -0.00195312 20.3025L-7.34257e-05 20.3006ZM13.0789 15.1446C13.609 15.1446 13.9041 14.8457 13.9116 14.3307C13.9172 14.0168 13.7668 13.7837 13.562 13.5657C13.4341 13.4303 13.1841 13.3345 13.1898 13.1709C13.1935 12.9942 13.4548 12.9078 13.577 12.7555C13.5826 12.7499 13.5864 12.7442 13.592 12.7367C13.6653 12.6484 13.7217 12.6578 13.795 12.7499C13.9623 12.9585 14.1616 13.1371 14.3796 13.2912C14.6559 13.4886 14.9642 13.4717 15.248 13.3307C15.5093 13.201 15.6221 12.951 15.6559 12.6615C15.7067 12.2367 15.4435 11.9811 15.1804 11.7179C14.9887 11.5274 14.9849 11.3401 15.1691 11.1559C15.218 11.1051 15.2706 11.0563 15.3063 10.9961C15.3815 10.8777 15.4435 10.9078 15.5225 10.9924C15.6672 11.1465 15.812 11.3006 15.9661 11.4454C16.2274 11.6954 16.5338 11.7649 16.8721 11.639C17.1823 11.5224 17.3571 11.3025 17.4059 10.9642C17.4567 10.6221 17.3063 10.3739 17.0864 10.1502C16.3871 9.44348 15.6823 8.74047 14.9793 8.03934C14.9078 7.96792 14.8232 7.90776 14.7387 7.85325C14.3514 7.60513 13.921 7.65776 13.639 7.98107C13.3608 8.30062 13.3533 8.75551 13.6315 9.09198C13.7556 9.24235 13.8947 9.38333 14.0375 9.51491C14.1766 9.64085 14.2386 9.74235 14.0375 9.87017C13.9473 9.92844 13.8702 10.0149 13.8063 10.1014C13.7255 10.2123 13.6672 10.216 13.5695 10.1145C13.4116 9.951 13.2443 9.79874 13.0732 9.64837C12.7537 9.37205 12.2612 9.36453 11.983 9.62769C11.6146 9.97543 11.5657 10.4247 11.8683 10.8006C12.0262 10.9942 12.1879 11.186 12.3871 11.3439C12.4661 11.4059 12.4811 11.4566 12.3871 11.5205C12.2631 11.6051 12.1541 11.7104 12.0732 11.8345C11.9905 11.9604 11.9285 11.9378 11.8364 11.8457C11.6635 11.6766 11.4868 11.5093 11.2988 11.357C11.0864 11.1841 10.8326 11.1408 10.5695 11.2066C9.96797 11.357 9.7706 12.0882 10.1165 12.5149C10.2706 12.7029 10.4323 12.8833 10.6146 13.0431C10.6766 13.0976 10.7687 13.154 10.6503 13.2442C10.5244 13.3401 10.4285 13.4642 10.3326 13.5882C10.2631 13.6803 10.1935 13.6935 10.1033 13.5995C9.96421 13.451 9.81008 13.3175 9.66534 13.1747C9.32699 12.842 8.7894 12.8251 8.46233 13.1408C8.12963 13.4623 8.12023 13.9604 8.44354 14.3194C8.58075 14.4698 8.72173 14.6164 8.86459 14.7611C8.93602 14.8326 8.99993 14.9096 8.90594 14.998C8.76309 15.1333 8.68038 15.3401 8.46609 15.389C8.43978 15.3946 8.39842 15.3326 8.36459 15.2987C8.23865 15.1709 8.12399 15.0281 7.98677 14.9134C7.75745 14.7217 7.50933 14.5638 7.18226 14.6427C6.80444 14.7348 6.55444 14.9472 6.49617 15.3457C6.45481 15.6258 6.52436 15.8739 6.72361 16.0751C7.28 16.6371 7.83827 17.1972 8.4003 17.7536C8.6503 17.9999 8.87023 18.2799 9.1597 18.4867C9.6409 18.8288 10.2894 18.5826 10.4379 18.0111C10.545 17.6014 10.3777 17.3006 10.1014 17.0243C9.6785 16.6033 9.68414 16.6033 10.124 16.1972C10.2199 16.1089 10.2612 16.107 10.3345 16.2198C10.4623 16.419 10.6447 16.5732 10.8308 16.7142C11.374 17.1258 12.03 16.8796 12.1785 16.2104C12.2668 15.8194 12.0845 15.5393 11.8101 15.2856C11.3984 14.9059 11.4097 14.9059 11.8007 14.5111C11.9323 14.3777 11.983 14.389 12.1108 14.5299C12.3721 14.8213 12.6221 15.1615 13.0732 15.1371L13.0789 15.1446Z" fill="#EE3536"/>
<path d="M19.5011 0C19.3677 0.0601504 19.223 0.0413534 19.0857 0.0357143C18.6722 0.018797 18.2587 0.0413534 17.8451 0.0526316C17.7211 0.056391 17.5951 0.0657895 17.4805 0H19.5011Z" fill="#EE3536"/>
</g>
<defs>
<clipPath id="clip0_37_140">
<rect width="25" height="25" fill="white"/>
</clipPath>
</defs>
</svg>
