<svg width="25" height="25" viewBox="0 0 25 25" fill="none" xmlns="http://www.w3.org/2000/svg">
<g clip-path="url(#clip0_37_31)">
<path d="M21.0446 3.34766C20.6714 3.79408 20.0744 4.46373 19.552 5.28218L20.8953 5.95182L20.5222 6.77028L19.1789 6.10063C18.8804 6.47266 18.6565 6.91909 18.4326 7.43992L19.7013 7.81194L19.4028 8.7048L18.1341 8.25837C17.9849 8.7792 17.8356 9.30004 17.761 9.82087L19.1043 10.0441L18.955 10.9369L17.6117 10.7137C17.5371 11.1602 17.5371 11.5322 17.5371 11.9786L19.0296 11.9042V12.7971L17.5371 12.8715C17.5371 13.3179 17.6117 13.6899 17.6864 14.1363L18.8804 13.7643L19.1043 14.6572L17.8356 15.0292C17.9102 15.4012 18.0595 15.8477 18.1341 16.2197L19.4774 15.6244L19.8505 16.4429L18.4326 17.0381C18.6565 17.4846 18.8058 18.0054 19.1043 18.4518L20.149 17.559L20.7461 18.2286L19.552 19.1959C19.9998 19.9399 20.5222 20.684 21.0446 21.428C23.4326 19.1215 24.9998 15.9221 24.9998 12.3506C24.9998 8.7792 23.5073 5.5798 21.0446 3.34766Z" fill="#EE3536"/>
<path d="M18.8807 19.8661L17.7613 20.8333L17.1643 20.0893L18.4329 19.0476C18.1344 18.5268 17.9105 17.9315 17.6867 17.4107L16.2687 18.006L15.8956 17.1875L17.3881 16.5179C17.2389 16.0714 17.0896 15.625 17.015 15.253L15.3732 15.7738L15.1493 14.881L16.8658 14.3601C16.7911 13.8393 16.7165 13.3929 16.7165 12.872L15.224 12.9464V12.0536L16.7165 11.9792C16.7165 11.4583 16.7165 11.0119 16.7911 10.5655L15.224 10.2679L15.3732 9.375L16.9404 9.67262C17.015 9.07738 17.1643 8.55655 17.3881 8.03572L15.821 7.51488L16.1195 6.69643L17.6867 7.21726C17.9105 6.69643 18.1344 6.1756 18.3583 5.72917L17.1643 5.13393L17.5374 4.31548L18.8061 4.91071C19.4031 4.01786 19.9255 3.27381 20.3732 2.75298C18.209 1.04167 15.4478 0 12.5374 0C9.62695 0 6.86576 1.04167 4.70158 2.75298C5.14934 3.27381 5.74636 4.01786 6.34337 4.98512L7.76128 4.31548L8.13442 5.13393L6.79113 5.72917C7.01501 6.1756 7.23889 6.69643 7.46277 7.21726L9.25382 6.62202L9.55233 7.44048L7.83591 8.03572C7.98516 8.55655 8.13442 9.07738 8.28367 9.67262L10.0001 9.375L10.1493 10.2679L8.3583 10.5655C8.43292 11.0119 8.43292 11.4583 8.43292 11.9792L10.1493 12.0536V12.9464L8.43292 12.872C8.43292 13.3185 8.3583 13.8393 8.28367 14.2857L10.1493 14.881L9.92546 15.7738L8.13442 15.253C8.05979 15.6994 7.91053 16.0714 7.76128 16.5179L9.40307 17.2619L8.95531 18.0804L7.38815 17.4107C7.16427 17.9315 6.94039 18.4524 6.64188 19.0476L8.05979 20.2381L7.46277 20.8333L6.19412 19.7917C5.74636 20.6101 5.22397 21.3542 4.62695 22.1726C6.79113 23.9583 9.55233 25 12.5374 25C15.5225 25 18.2837 23.9583 20.4478 22.1726C19.8508 21.3542 19.3284 20.6101 18.8807 19.8661Z" fill="#EE3536"/>
<path d="M3.95522 21.577C4.55224 20.7586 5.07463 20.0145 5.52239 19.1961L4.47761 18.3032L5.07463 17.6336L5.97015 18.3776C6.19403 17.9312 6.41791 17.4847 6.56716 16.9639L5.29851 16.4431L5.67164 15.6246L6.86567 16.1455C7.01493 15.7734 7.08955 15.4014 7.16418 14.955L6.04478 14.6574L6.26866 13.7645L7.31343 14.0621C7.38806 13.6901 7.38806 13.2437 7.46269 12.8717H6.1194V11.9788H7.46269C7.46269 11.6068 7.46269 11.1603 7.38806 10.7883L6.19403 11.0115L6.04478 10.1187L7.23881 9.89546C7.16418 9.37463 7.01493 8.8538 6.86567 8.40737L5.74627 8.77939L5.44776 7.96094L6.49254 7.58891C6.41791 6.99368 6.19403 6.54725 5.97015 6.10082L4.77612 6.77046L4.32836 5.95201L5.52239 5.35677C5 4.46391 4.40299 3.79427 4.02985 3.27344C1.56716 5.57999 0 8.8538 0 12.4996C0 16.1455 1.49254 19.2705 3.95522 21.577Z" fill="#EE3536"/>
</g>
<defs>
<clipPath id="clip0_37_31">
<rect width="25" height="25" fill="white"/>
</clipPath>
</defs>
</svg>
