<svg width="25" height="25" viewBox="0 0 25 25" fill="none" xmlns="http://www.w3.org/2000/svg">
<g clip-path="url(#clip0_37_145)">
<path d="M11.2499 13.8966C14.1911 15.8819 16.6176 17.279 18.3823 18.0878C18.7499 17.5731 19.1176 17.0584 19.4117 16.4701C19.5587 16.176 19.7058 15.8819 19.8528 15.6613C18.0881 14.4113 16.9117 11.8378 15.6617 9.11719C14.1911 5.58778 12.5734 1.98483 9.55873 0.367188C6.47049 1.10248 3.89696 2.94072 2.13226 5.44072C1.83814 6.02895 4.63226 9.4113 11.2499 13.8966Z" fill="#EE3536"/>
<path d="M16.2507 20.7346C16.9125 20.0728 17.5007 19.4111 18.0154 18.6758C15.5154 17.4993 12.7213 15.7346 10.883 14.4846C7.86834 12.3523 2.72128 8.38166 1.69187 6.17578C0.662454 7.94049 0.0742188 10.0728 0.0742188 12.2787C0.0742188 13.8964 0.368336 15.367 0.956572 16.764C4.04481 19.6317 7.20657 19.7052 10.2948 19.8523C12.2801 19.8523 14.2654 19.9258 16.2507 20.7346Z" fill="#EE3536"/>
<path d="M16.4707 21.5442C16.3972 21.5442 16.3972 21.5442 16.3972 21.4707C14.7795 23.0148 13.0884 24.0442 11.4707 24.5589C11.7648 24.6325 12.0589 24.6325 12.3531 24.6325C14.2648 24.6325 16.1766 24.1913 17.7942 23.3825C17.8678 22.5736 17.4266 21.9854 16.4707 21.5442Z" fill="#EE3536"/>
<path d="M10.2949 20.4415C7.42727 20.368 4.4861 20.2209 1.54492 18.1621C3.08904 21.0298 5.7361 23.1621 8.89786 24.118C10.8832 24.5592 13.4567 23.3827 15.8096 21.2503C13.9714 20.5886 12.2067 20.515 10.2949 20.4415Z" fill="#EE3536"/>
<path d="M16.3244 8.75C17.5009 11.3971 18.6039 13.8235 20.2215 15C22.4274 10.3676 22.7215 5.66176 20.8097 3.45588C18.6039 1.32353 15.5892 0 12.3539 0C11.6921 0 11.1039 0.0735294 10.5156 0.147059C13.3097 2.05882 14.9274 5.58823 16.3244 8.75Z" fill="#EE3536"/>
<path d="M16.8398 21.0288C18.0163 21.6171 18.3104 22.3524 18.384 22.9406C19.7075 22.1318 20.9575 21.1759 21.9134 19.9259C21.1045 19.8524 19.9281 19.4847 18.6045 18.8965C18.0898 19.7053 17.5016 20.3671 16.8398 21.0288Z" fill="#EE3536"/>
<path d="M22.4998 5.44141C23.1615 8.08846 22.6468 11.7649 20.8086 15.4414C21.5439 15.8091 22.1321 15.8826 22.7204 15.662C23.9704 15.1473 24.4851 13.3826 24.6321 13.0885C24.6321 12.8679 24.7057 12.5738 24.7057 12.3532C24.5586 9.77964 23.7498 7.4267 22.4998 5.44141Z" fill="#EE3536"/>
<path d="M22.942 16.1765C22.6479 16.3235 22.2802 16.3971 21.9861 16.3971C21.4714 16.3971 21.0302 16.25 20.5155 15.9559C20.3685 16.25 20.2214 16.5441 20.0743 16.7647C19.7067 17.3529 19.4126 17.8676 19.0449 18.3088C21.0302 19.1912 22.2067 19.4118 22.4273 19.1912C23.3096 17.9412 23.8979 16.5441 24.2655 15C23.8979 15.5147 23.4567 15.9559 22.942 16.1765Z" fill="#EE3536"/>
</g>
<defs>
<clipPath id="clip0_37_145">
<rect width="25" height="25" fill="white"/>
</clipPath>
</defs>
</svg>
