<svg width="25" height="25" viewBox="0 0 25 25" fill="none" xmlns="http://www.w3.org/2000/svg">
<g clip-path="url(#clip0_37_156)">
<path d="M12.1738 24.9003C13.1521 24.9003 14.0217 24.7916 14.9999 24.5742L15.1086 23.3786C15.1086 23.1612 15.2173 22.8351 15.4347 22.7264L17.2825 20.5525L14.7825 17.0742C14.5651 17.1829 14.3477 17.2916 14.1303 17.2916H10.326C10.1086 17.2916 9.89122 17.1829 9.67383 17.0742L7.17383 20.5525L9.02165 22.8351L9.34774 23.4873L9.45644 24.6829C10.2173 24.7916 11.1956 24.9003 12.1738 24.9003Z" fill="#EE3536"/>
<path d="M8.37075 24.3581L8.26206 23.4885C8.26206 23.3798 8.26206 23.3798 8.15336 23.2711L6.08815 20.7711C6.08815 20.7711 5.97945 20.6624 5.87075 20.6624L2.82728 19.4668C2.71858 19.4668 2.71858 19.4668 2.60988 19.4668L2.06641 19.5755C3.58815 21.7494 5.76206 23.4885 8.37075 24.3581Z" fill="#EE3536"/>
<path d="M15.8711 24.3581C18.4798 23.4885 20.6537 21.7494 22.1754 19.5755L21.632 19.4668C21.5233 19.4668 21.5233 19.4668 21.4146 19.4668L18.3711 20.6624C18.2624 20.6624 18.2624 20.7711 18.1537 20.7711L16.0885 23.2711C16.0885 23.3798 15.9798 23.3798 15.9798 23.4885L15.8711 24.3581Z" fill="#EE3536"/>
<path d="M6.41372 19.7925L9.02242 16.2055C9.02242 16.0968 8.91372 16.0968 8.91372 15.9881L7.93546 12.2925C7.93546 12.1838 7.93546 12.0751 7.93546 11.9664L3.58764 10.3359L1.84851 12.8359C1.73981 13.0533 1.52242 13.162 1.30503 13.2707L0.109375 13.9229C0.218071 15.662 0.761549 17.1838 1.52242 18.5968L2.39198 18.3794C2.60938 18.3794 2.93546 18.3794 3.15285 18.4881L6.19633 19.6838C6.41372 19.6838 6.41372 19.6838 6.41372 19.7925Z" fill="#EE3536"/>
<path d="M17.8274 19.7925C17.8274 19.7925 17.9361 19.7925 17.9361 19.6838L20.9796 18.4881C21.197 18.3794 21.5231 18.3794 21.7405 18.3794L22.6101 18.5968C23.3709 17.0751 23.9144 15.4446 24.0231 13.7055L22.8274 13.2707C22.6101 13.162 22.3927 13.0533 22.284 12.8359L20.6535 10.3359L16.3057 11.9664V12.2925L15.3274 15.9881C15.3274 16.0968 15.3274 16.0968 15.2188 16.2055L17.8274 19.7925Z" fill="#EE3536"/>
<path d="M10.3271 16.0968H14.0228C14.2401 16.0968 14.4575 15.9881 14.4575 15.7707L15.4358 12.0751C15.4358 11.8577 15.4358 11.6403 15.2184 11.6403L12.501 9.79246C12.3923 9.68376 12.1749 9.68376 11.9575 9.79246L9.13145 11.5316C9.02276 11.6403 8.91406 11.8577 8.91406 11.9664L9.89232 15.662C9.89232 15.9881 10.1097 16.0968 10.3271 16.0968Z" fill="#EE3536"/>
<path d="M0.109375 12.9433L0.870245 12.5085C0.97894 12.5085 0.97894 12.3998 1.08764 12.3998L3.04416 9.46501C3.04416 9.35632 3.15285 9.35632 3.15285 9.24762L3.37024 5.98675C3.37024 5.87806 3.37024 5.87806 3.37024 5.76936L2.93546 5.11719C1.19633 7.1824 0.109375 9.8998 0.109375 12.9433Z" fill="#EE3536"/>
<path d="M24.1307 12.7259C24.1307 9.7911 23.0437 7.1824 21.3046 5.11719L20.9785 5.76936V5.98675L21.1959 9.24762C21.1959 9.35632 21.1959 9.35632 21.3046 9.46501L23.2611 12.2911C23.2611 12.3998 23.3698 12.3998 23.4785 12.3998L24.1307 12.7259Z" fill="#EE3536"/>
<path d="M8.2618 11.0966C8.3705 10.9879 8.4792 10.8792 8.58789 10.8792L11.3053 9.03133C11.414 8.92264 11.5227 8.92264 11.6314 8.92264V3.59655L8.58789 2.83568C8.3705 2.72699 8.15311 2.61829 7.93572 2.4009L7.39224 1.85742C5.9792 2.5096 4.67485 3.37916 3.58789 4.46612L4.13137 5.33568C4.24006 5.55307 4.34876 5.77047 4.24006 6.09655L4.02267 9.35742V9.46612L8.2618 11.0966Z" fill="#EE3536"/>
<path d="M15.9789 11.0966L20.3268 9.57481V9.46612L20.1094 6.20525C20.1094 5.98786 20.1094 5.66177 20.3268 5.44438L20.6529 4.46612C19.5659 3.37916 18.2615 2.5096 16.8485 1.85742L16.305 2.4009C16.0876 2.61829 15.8702 2.72699 15.6529 2.72699L12.6094 3.48786V8.70525C12.7181 8.70525 12.8268 8.81394 12.9355 8.81394L15.6529 10.6618C15.7615 10.8792 15.8702 10.9879 15.9789 11.0966Z" fill="#EE3536"/>
<path d="M12.0667 2.72673H12.2841L15.545 1.85717C15.6537 1.85717 15.6537 1.74847 15.7624 1.74847L15.9798 1.53108C14.7841 1.0963 13.4798 0.878906 12.1754 0.878906C10.8711 0.878906 9.56675 1.0963 8.37109 1.53108L8.58849 1.74847C8.69718 1.85717 8.69718 1.85717 8.80588 1.85717L12.0667 2.72673Z" fill="#EE3536"/>
</g>
<defs>
<clipPath id="clip0_37_156">
<rect width="25" height="25" fill="white"/>
</clipPath>
</defs>
</svg>
